<?xml version="1.0" standalone="no"?>
<!DOCTYPE svg PUBLIC "-//W3C//DTD SVG 20010904//EN"
 "http://www.w3.org/TR/2001/REC-SVG-20010904/DTD/svg10.dtd">
<svg version="1.0" xmlns="http://www.w3.org/2000/svg"
 width="551.000000pt" height="359.000000pt" viewBox="0 0 551.000000 359.000000"
 preserveAspectRatio="xMidYMid meet">
<metadata>
Created by potrace 1.14, written by Peter Selinger 2001-2017
</metadata>
<g transform="translate(0.000000,359.000000) scale(0.100000,-0.100000)"
fill="#ffffff" stroke="none">
<path d="M2378 3503 c-9 -10 -20 -27 -26 -39 -6 -11 -77 -72 -158 -134 -176
-135 -196 -142 -305 -111 -40 11 -76 26 -81 33 -12 20 2 80 29 120 19 28 23
44 18 67 -12 57 -72 78 -116 42 -22 -18 -24 -27 -24 -103 0 -72 -3 -87 -24
-115 -19 -26 -22 -38 -16 -69 10 -56 -277 -1104 -309 -1124 -15 -10 -121 -18
-386 -31 -318 -14 -369 -15 -393 -2 -40 20 -84 8 -102 -28 -21 -40 -10 -77 32
-102 46 -27 233 -305 244 -362 7 -37 -5 -67 -173 -440 -99 -220 -184 -402
-190 -404 -50 -18 -63 -88 -23 -125 34 -32 117 -322 108 -383 -5 -35 -2 -45
20 -67 30 -29 50 -32 89 -12 23 12 61 12 275 0 179 -11 254 -19 270 -30 29
-18 68 -18 98 2 16 10 73 20 165 29 118 11 147 11 173 0 66 -27 125 28 100 95
-14 38 101 704 128 738 21 27 25 63 9 92 -16 29 6 196 31 245 17 33 19 45 10
68 -6 15 -21 32 -34 38 -34 15 -323 567 -331 632 -5 40 15 124 140 580 80 292
149 536 154 541 13 13 156 -34 181 -60 38 -40 100 -27 123 26 17 42 298 252
356 267 42 11 81 3 589 -108 420 -92 550 -124 566 -139 24 -22 66 -26 94 -9
27 18 1307 -46 1338 -67 36 -23 79 -18 102 12 53 68 -13 148 -90 110 -26 -13
-99 -12 -672 15 -353 17 -649 35 -657 40 -39 24 -64 29 -92 20 -41 -14 -1113
220 -1140 249 -24 25 -79 26 -100 3z m-984 -1565 c13 -13 90 -147 170 -299
107 -201 146 -285 146 -310 0 -19 5 -40 10 -45 18 -18 -8 -213 -33 -246 -19
-25 -20 -32 -9 -62 11 -31 6 -73 -43 -358 -69 -403 -63 -377 -88 -389 -12 -5
-85 -15 -162 -23 -115 -10 -144 -10 -165 1 -32 16 -39 16 -73 -2 -41 -21 -523
8 -550 33 -9 10 -37 87 -61 172 -65 228 -72 193 139 662 133 294 183 396 206
415 37 32 39 74 4 108 -13 14 -28 25 -34 25 -12 0 -215 300 -207 307 6 6 461
30 618 32 98 1 109 -1 132 -21z"/>
</g>
</svg>
