<?xml version="1.0" standalone="no"?>
<!DOCTYPE svg PUBLIC "-//W3C//DTD SVG 20010904//EN"
 "http://www.w3.org/TR/2001/REC-SVG-20010904/DTD/svg10.dtd">
<svg version="1.0" xmlns="http://www.w3.org/2000/svg"
 width="552.000000pt" height="322.000000pt" viewBox="0 0 552.000000 322.000000"
 preserveAspectRatio="xMidYMid meet">
<metadata>
Created by potrace 1.14, written by Peter Selinger 2001-2017
</metadata>
<g transform="translate(0.000000,322.000000) scale(0.100000,-0.100000)"
fill="#ffffff" stroke="none">
<path d="M1040 3150 c-24 -24 -26 -76 -6 -106 23 -32 52 -426 35 -476 -10 -31
-10 -46 1 -78 20 -60 -50 -1628 -74 -1662 -9 -12 -16 -30 -16 -40 0 -25 -537
-588 -560 -588 -24 0 -60 -46 -60 -75 0 -13 8 -33 19 -46 39 -48 131 -18 131
43 0 24 535 588 558 588 9 0 28 11 43 25 36 35 2611 884 2658 877 17 -2 44 1
59 7 41 17 1177 -43 1209 -64 36 -24 79 -19 102 11 53 67 -13 148 -90 110 -25
-13 -95 -11 -611 16 -321 17 -586 33 -590 37 -4 4 15 135 42 291 27 157 50
288 50 293 0 4 5 7 10 7 6 0 198 -79 428 -176 327 -139 422 -183 440 -205 18
-22 32 -29 58 -29 84 0 102 104 25 143 -36 18 -400 545 -401 580 0 16 -11 39
-26 54 -32 32 -78 26 -114 -17 -30 -35 -409 -213 -434 -204 -9 3 -30 1 -48 -5
-28 -10 -202 15 -1183 165 -731 113 -1156 182 -1166 191 -9 8 -32 18 -50 23
-49 14 -300 232 -320 280 -24 54 -81 68 -119 30z m323 -351 l30 -25 -107 -78
c-60 -42 -109 -76 -111 -74 -4 4 -25 276 -25 322 l0 37 91 -78 c50 -43 105
-90 122 -104z m1330 -265 c628 -97 1146 -179 1150 -184 5 -4 -14 -139 -42
-298 -38 -225 -55 -298 -71 -319 -18 -26 -145 -69 -1321 -456 -716 -236 -1302
-427 -1303 -425 -1 2 14 363 34 803 33 717 39 804 56 838 13 27 47 59 118 110
123 89 121 87 154 93 14 3 29 7 31 10 10 10 101 -4 1194 -172z m1888 -204 c87
-124 158 -228 158 -232 1 -4 -45 12 -101 36 -411 173 -608 259 -603 264 19 20
344 161 364 159 19 -2 57 -48 182 -227z"/>
</g>
</svg>
