<?xml version="1.0" standalone="no"?>
<!DOCTYPE svg PUBLIC "-//W3C//DTD SVG 20010904//EN"
 "http://www.w3.org/TR/2001/REC-SVG-20010904/DTD/svg10.dtd">
<svg version="1.0" xmlns="http://www.w3.org/2000/svg"
 width="549.000000pt" height="908.000000pt" viewBox="0 0 549.000000 908.000000"
 preserveAspectRatio="xMidYMid meet">
<metadata>
Created by potrace 1.14, written by Peter Selinger 2001-2017
</metadata>
<g transform="translate(0.000000,908.000000) scale(0.100000,-0.100000)"
fill="#ffffff" stroke="none">
<path d="M3115 8758 c-26 -20 -27 -24 -20 -81 9 -86 -408 -2789 -437 -2826
-12 -17 -18 -38 -17 -65 3 -59 -382 -1137 -422 -1184 -16 -18 -29 -41 -29 -51
0 -10 -398 -461 -884 -1003 -639 -711 -896 -991 -923 -1004 -48 -24 -64 -63
-42 -102 35 -63 111 -50 139 24 11 30 256 309 890 1016 481 537 878 973 881
969 3 -3 372 -908 820 -2011 652 -1606 813 -2012 811 -2043 -5 -75 73 -113
125 -61 21 21 24 31 19 63 -5 32 73 266 522 1582 430 1256 533 1550 555 1571
15 16 27 38 27 53 0 30 -41 75 -68 75 -10 0 -493 444 -1142 1051 -952 889
-1127 1057 -1139 1090 -12 38 1 129 199 1417 165 1070 217 1383 231 1403 34
50 34 75 1 109 -36 36 -60 38 -97 8z m760 -4113 c793 -740 1102 -1035 1108
-1056 6 -23 -88 -308 -510 -1544 -285 -833 -520 -1515 -523 -1515 -3 0 -367
891 -809 1980 -665 1640 -804 1989 -806 2033 -2 45 22 120 188 587 104 294
194 546 199 559 l9 24 22 -20 c12 -11 517 -483 1122 -1048z"/>
</g>
</svg>
