<?xml version="1.0" standalone="no"?>
<!DOCTYPE svg PUBLIC "-//W3C//DTD SVG 20010904//EN"
 "http://www.w3.org/TR/2001/REC-SVG-20010904/DTD/svg10.dtd">
<svg version="1.0" xmlns="http://www.w3.org/2000/svg"
 width="551.000000pt" height="432.000000pt" viewBox="0 0 551.000000 432.000000"
 preserveAspectRatio="xMidYMid meet">
<metadata>
Created by potrace 1.14, written by Peter Selinger 2001-2017
</metadata>
<g transform="translate(0.000000,432.000000) scale(0.100000,-0.100000)"
fill="#ffffff" stroke="none">
<path d="M5042 4214 c-39 -16 -49 -51 -32 -104 20 -60 -13 -461 -41 -506 -16
-26 -217 -143 -1120 -648 -789 -441 -1110 -616 -1132 -616 -17 0 -40 -9 -51
-19 -16 -15 -118 -41 -396 -101 -206 -45 -388 -80 -405 -80 -92 4 -98 3 -114
-18 -24 -32 -843 -284 -895 -275 -23 4 -44 0 -59 -10 -33 -21 -298 -26 -345
-6 -28 12 -36 12 -60 -1 -87 -49 -18 -173 71 -128 49 25 291 35 332 14 42 -22
59 -20 95 11 24 20 131 57 448 154 229 70 419 126 422 123 7 -8 21 -835 16
-1024 -2 -91 -7 -181 -11 -202 -6 -29 -3 -40 14 -57 12 -12 34 -21 50 -21 28
0 46 -14 108 -85 29 -32 67 -32 100 1 19 19 24 32 21 56 -4 26 58 169 318 740
177 389 327 715 332 724 14 24 202 -420 195 -459 -4 -20 1 -38 17 -59 19 -26
36 -113 117 -601 76 -464 92 -576 83 -598 -21 -51 14 -109 66 -109 12 0 33 9
48 21 32 25 35 73 7 103 -26 29 -215 1167 -199 1201 10 23 1635 982 1645 971
3 -2 -91 -425 -208 -938 -178 -779 -217 -938 -237 -962 -17 -22 -22 -38 -19
-60 7 -46 -124 -382 -164 -418 -55 -50 -28 -128 45 -128 19 0 42 7 50 16 19
19 30 58 22 79 -3 9 26 97 65 197 52 134 79 189 101 210 26 24 29 33 24 61 -4
17 -7 40 -7 49 0 10 98 446 217 970 183 798 222 958 242 982 19 24 23 37 18
65 -4 28 18 114 106 396 71 230 117 365 129 375 30 25 39 62 23 98 -20 48 9
439 37 498 10 23 19 49 19 58 0 52 -55 83 -108 60z m-97 -766 c-2 -7 -49 -158
-104 -334 -75 -241 -106 -328 -124 -346 -13 -13 -26 -29 -28 -35 -4 -12 -1650
-982 -1679 -990 -11 -3 -42 58 -122 244 -63 147 -104 253 -99 261 7 12 2136
1210 2153 1211 4 1 5 -5 3 -11z m-2315 -1252 c0 -6 -658 -1448 -664 -1453 -9
-9 -48 25 -69 59 -19 31 -20 57 -28 443 -10 538 -11 767 0 783 5 8 155 46 367
92 349 75 394 84 394 76z"/>
</g>
</svg>
