<?xml version="1.0" standalone="no"?>
<!DOCTYPE svg PUBLIC "-//W3C//DTD SVG 20010904//EN"
 "http://www.w3.org/TR/2001/REC-SVG-20010904/DTD/svg10.dtd">
<svg version="1.0" xmlns="http://www.w3.org/2000/svg"
 width="552.000000pt" height="266.000000pt" viewBox="0 0 552.000000 266.000000"
 preserveAspectRatio="xMidYMid meet">
<metadata>
Created by potrace 1.14, written by Peter Selinger 2001-2017
</metadata>
<g transform="translate(0.000000,266.000000) scale(0.100000,-0.100000)"
fill="#ffffff" stroke="none">
<path d="M1694 2620 c-31 -32 -1167 -274 -1241 -265 -47 6 -55 4 -78 -19 -32
-32 -32 -70 0 -101 30 -31 65 -32 102 -2 23 19 127 44 602 145 316 67 576 120
578 118 2 -2 -41 -111 -97 -241 -72 -170 -109 -245 -130 -265 -17 -15 -30 -35
-30 -44 0 -26 -425 -409 -471 -424 -49 -17 -63 -42 -55 -96 5 -32 -7 -96 -49
-271 -31 -127 -61 -234 -69 -240 -60 -46 -29 -135 46 -135 45 0 71 34 65 83
-7 58 98 505 124 530 10 10 21 28 25 41 3 15 96 107 226 226 182 166 223 199
233 188 7 -7 196 -275 419 -595 281 -403 406 -590 406 -608 0 -33 42 -75 75
-75 32 0 75 41 75 73 0 29 -15 49 -58 79 -30 22 -796 1107 -787 1116 2 2 320
-100 707 -226 387 -127 787 -258 891 -292 114 -37 187 -66 187 -74 0 -7 -43
-117 -95 -244 -67 -161 -104 -240 -125 -261 -37 -36 -39 -73 -5 -106 50 -51
128 -12 123 62 -2 29 18 89 82 245 47 114 87 208 90 208 3 0 94 -222 203 -492
148 -371 197 -504 197 -535 0 -50 26 -83 64 -83 39 0 57 11 71 44 15 36 5 71
-29 101 -32 28 -440 1047 -432 1078 7 27 807 600 844 605 35 5 274 -158 301
-204 37 -61 114 -54 136 13 16 48 238 280 275 288 57 13 77 71 39 119 -18 23
-28 27 -68 24 -63 -3 -680 202 -716 238 -28 28 -79 32 -105 9 -12 -11 -95 -21
-315 -41 -279 -24 -347 -25 -417 -8 -36 8 -78 -32 -78 -75 0 -35 -187 -334
-212 -339 -25 -5 -1087 498 -1093 518 -6 20 -46 40 -78 40 -24 0 -227 118
-227 132 0 5 -11 20 -25 33 -30 31 -73 32 -101 5z m187 -191 c62 -38 105 -72
114 -89 16 -31 37 -41 81 -39 20 1 201 -79 554 -245 425 -200 531 -254 560
-284 25 -27 56 -87 112 -222 42 -102 75 -186 74 -187 -2 -3 -1828 595 -1833
601 -2 2 41 110 96 239 55 129 105 246 111 261 5 14 14 26 21 26 6 0 55 -28
110 -61z m2362 -191 c10 -8 30 -60 49 -131 25 -94 29 -123 20 -142 -10 -21
-805 -600 -825 -600 -5 0 -46 92 -92 204 -75 181 -84 208 -78 248 8 60 176
326 224 355 29 18 79 25 349 48 173 15 320 28 326 29 5 0 18 -5 27 -11z m444
-119 l303 -101 -118 -124 c-91 -97 -122 -124 -140 -122 -31 4 -271 169 -278
191 -3 10 -14 25 -24 35 -14 13 -70 186 -70 216 0 13 34 3 327 -95z"/>
</g>
</svg>
