<?xml version="1.0" standalone="no"?>
<!DOCTYPE svg PUBLIC "-//W3C//DTD SVG 20010904//EN"
 "http://www.w3.org/TR/2001/REC-SVG-20010904/DTD/svg10.dtd">
<svg version="1.0" xmlns="http://www.w3.org/2000/svg"
 width="550.000000pt" height="700.000000pt" viewBox="0 0 550.000000 700.000000"
 preserveAspectRatio="xMidYMid meet">
<metadata>
Created by potrace 1.14, written by Peter Selinger 2001-2017
</metadata>
<g transform="translate(0.000000,700.000000) scale(0.100000,-0.100000)"
fill="#ffffff" stroke="none">
<path d="M3643 6770 c-12 -5 -30 -25 -40 -45 -14 -27 -212 -182 -903 -704
-624 -472 -894 -671 -914 -673 -43 -4 -72 -48 -60 -90 9 -29 -64 -323 -539
-2197 -467 -1843 -552 -2169 -573 -2195 -19 -22 -24 -37 -20 -57 8 -40 -164
-412 -211 -455 -40 -38 -43 -75 -8 -109 50 -51 126 -13 124 62 -1 52 166 411
212 454 29 27 31 33 25 75 -5 38 75 365 540 2202 301 1186 550 2161 554 2165
6 7 3142 -1324 3164 -1343 4 -5 -384 -601 -863 -1327 -652 -986 -880 -1325
-908 -1344 -44 -32 -58 -63 -43 -100 11 -25 46 -49 74 -49 29 0 66 41 67 73 0
25 193 323 877 1357 570 860 886 1329 902 1337 59 29 66 81 17 127 -49 46
-1367 2706 -1367 2758 0 61 -54 100 -107 78z m676 -1469 c358 -723 649 -1317
646 -1319 -6 -6 -3065 1301 -3065 1310 0 12 1755 1337 1761 1330 4 -4 300
-598 658 -1321z"/>
</g>
</svg>
