<?xml version="1.0" standalone="no"?>
<!DOCTYPE svg PUBLIC "-//W3C//DTD SVG 20010904//EN"
 "http://www.w3.org/TR/2001/REC-SVG-20010904/DTD/svg10.dtd">
<svg version="1.0" xmlns="http://www.w3.org/2000/svg"
 width="552.000000pt" height="422.000000pt" viewBox="0 0 552.000000 422.000000"
 preserveAspectRatio="xMidYMid meet">
<metadata>
Created by potrace 1.14, written by Peter Selinger 2001-2017
</metadata>
<g transform="translate(0.000000,422.000000) scale(0.100000,-0.100000)"
fill="#ffffff" stroke="none">
<path d="M633 4114 c-22 -22 -24 -31 -19 -68 9 -59 -125 -567 -160 -609 -13
-16 -24 -40 -24 -53 0 -29 41 -74 68 -74 10 0 57 -34 104 -75 130 -115 123
-61 100 -702 -16 -476 -20 -542 -36 -572 -16 -30 -16 -39 -6 -72 18 -55 -62
-719 -92 -763 -16 -23 -19 -38 -14 -75 9 -68 -141 -786 -172 -826 -12 -15 -22
-39 -22 -52 0 -32 42 -73 75 -73 32 0 75 41 75 72 1 32 347 444 392 466 18 10
39 29 46 45 18 37 803 641 840 645 15 2 38 14 52 26 30 28 300 99 322 85 26
-17 60 -9 89 22 41 44 1169 509 1229 506 27 -1 46 5 62 19 31 28 456 101 474
81 6 -7 30 -84 52 -172 31 -119 40 -171 36 -201 -5 -34 -2 -46 15 -63 28 -28
73 -27 108 3 42 36 295 108 348 100 58 -8 87 17 90 77 2 56 94 244 136 277 16
13 29 30 29 38 0 21 223 164 255 164 33 0 75 42 75 75 0 14 -11 37 -25 50 -39
40 -92 29 -119 -23 -21 -41 -223 -172 -264 -172 -44 0 -348 152 -357 179 -3
10 -19 24 -36 31 -40 17 -76 1 -94 -43 -15 -37 -184 -177 -213 -177 -11 0 -31
-9 -44 -20 -37 -29 -410 -92 -494 -84 -58 6 -62 5 -85 -23 -34 -42 -1163 -507
-1223 -504 -29 1 -45 -4 -65 -22 -34 -32 -293 -98 -331 -84 -37 13 -77 -7 -97
-48 -24 -48 -800 -645 -838 -645 -32 0 -75 -41 -75 -73 0 -15 -46 -78 -136
-185 -75 -90 -138 -161 -140 -160 -1 2 27 145 63 318 44 212 71 322 82 335 28
31 32 54 20 95 -17 55 65 723 93 759 21 27 23 59 6 95 -17 38 18 1102 38 1133
32 51 3 123 -49 123 -35 0 -195 153 -202 194 -10 49 127 559 160 598 32 37 32
72 0 103 -31 32 -69 32 -102 -1z m3897 -1904 c88 -44 160 -85 160 -90 0 -27
-123 -247 -149 -268 -28 -21 -281 -102 -320 -102 -15 0 -26 28 -63 168 -35
130 -43 173 -36 194 14 39 185 177 221 178 15 0 99 -36 187 -80z"/>
</g>
</svg>
