<?xml version="1.0" standalone="no"?>
<!DOCTYPE svg PUBLIC "-//W3C//DTD SVG 20010904//EN"
 "http://www.w3.org/TR/2001/REC-SVG-20010904/DTD/svg10.dtd">
<svg version="1.0" xmlns="http://www.w3.org/2000/svg"
 width="550.000000pt" height="650.000000pt" viewBox="0 0 550.000000 650.000000"
 preserveAspectRatio="xMidYMid meet">
<metadata>
Created by potrace 1.14, written by Peter Selinger 2001-2017
</metadata>
<g transform="translate(0.000000,650.000000) scale(0.100000,-0.100000)"
fill="#ffffff" stroke="none">
<path d="M1389 6291 c-25 -26 -30 -37 -24 -59 3 -15 13 -35 22 -44 20 -22 56
-274 43 -299 -26 -47 1 -102 56 -116 44 -11 549 -481 569 -529 9 -22 25 -40
42 -46 20 -8 124 -139 368 -468 187 -251 340 -463 340 -471 0 -22 -365 -278
-398 -279 -32 0 -77 -40 -77 -67 0 -25 -1873 -1865 -1913 -1879 -67 -24 -86
-86 -40 -132 39 -38 433 -1170 433 -1243 0 -39 4 -51 26 -68 31 -24 43 -26 78
-10 47 22 51 93 6 129 -12 10 -88 216 -214 579 -108 311 -194 566 -193 567 2
2 327 -163 722 -367 586 -302 726 -377 750 -406 27 -33 37 -67 101 -367 41
-190 69 -337 64 -346 -4 -8 -11 -40 -14 -71 -9 -70 16 -109 69 -109 46 0 70
33 79 107 6 50 4 61 -15 87 -17 22 -40 110 -89 341 -59 273 -67 323 -65 401 2
79 33 210 276 1173 217 863 278 1090 296 1112 13 15 23 35 23 44 0 21 583 597
617 609 20 7 106 -31 523 -230 366 -175 501 -244 509 -260 16 -35 -70 -839
-94 -880 -23 -39 -14 -80 23 -101 38 -22 253 -390 246 -420 -5 -16 2 -31 24
-53 36 -35 60 -38 96 -9 23 18 27 28 25 68 -3 66 400 1220 442 1269 35 40 36
65 5 111 -19 30 -53 190 -200 939 -153 777 -176 908 -166 932 9 22 9 34 -4 58
-36 69 -136 49 -136 -27 0 -40 -527 -849 -567 -872 -56 -31 -63 -97 -15 -131
13 -9 67 -139 157 -376 75 -200 135 -365 133 -368 -3 -2 -211 95 -462 215
-340 162 -466 227 -488 251 -27 30 -33 32 -76 27 -66 -8 -327 56 -361 89 -21
20 -34 74 -117 495 -65 332 -90 478 -83 490 15 30 10 59 -16 84 -29 30 -63 32
-96 7 -36 -28 -415 -59 -479 -40 -35 11 -94 60 -312 261 -147 137 -268 255
-268 262 0 7 -9 23 -19 37 -23 29 -64 283 -50 310 26 49 2 100 -53 113 -22 6
-33 1 -59 -24z m3286 -993 c19 -86 335 -1707 335 -1721 0 -13 -6 -16 -22 -12
-13 3 -130 23 -260 44 -205 34 -241 43 -263 63 -34 32 -315 772 -315 831 0 35
29 84 253 428 138 213 255 388 259 389 4 0 10 -10 13 -22z m-2040 -48 c4 -6
40 -180 81 -388 40 -207 76 -386 78 -396 4 -17 3 -17 -9 -5 -8 8 -141 183
-294 389 -265 356 -278 375 -253 378 66 9 302 30 344 31 26 0 50 -4 53 -9z
m452 -1102 c73 -17 133 -35 133 -39 0 -8 -556 -552 -569 -557 -3 -1 -46 70
-94 159 -67 125 -84 165 -77 179 15 28 374 278 406 283 57 8 69 7 201 -25z
m-608 -486 c78 -145 90 -180 92 -253 0 -14 -402 -1623 -513 -2051 -22 -87 -45
-158 -50 -158 -20 0 -1497 765 -1495 774 4 11 1870 1846 1877 1846 3 0 43 -71
89 -158z m2275 -152 c138 -22 252 -42 254 -44 6 -7 -403 -1168 -412 -1168 -15
0 -196 315 -196 341 0 14 -5 39 -12 57 -9 26 -3 107 31 439 23 225 44 412 46
416 3 4 13 5 23 3 9 -2 129 -22 266 -44z"/>
</g>
</svg>
