<?xml version="1.0" standalone="no"?>
<!DOCTYPE svg PUBLIC "-//W3C//DTD SVG 20010904//EN"
 "http://www.w3.org/TR/2001/REC-SVG-20010904/DTD/svg10.dtd">
<svg version="1.0" xmlns="http://www.w3.org/2000/svg"
 width="550.000000pt" height="461.000000pt" viewBox="0 0 550.000000 461.000000"
 preserveAspectRatio="xMidYMid meet">
<metadata>
Created by potrace 1.14, written by Peter Selinger 2001-2017
</metadata>
<g transform="translate(0.000000,461.000000) scale(0.100000,-0.100000)"
fill="#ffffff" stroke="none">
<path d="M4641 4484 c-12 -15 -21 -40 -21 -57 0 -21 -84 -191 -257 -521 -141
-270 -261 -493 -267 -495 -5 -2 -20 -15 -33 -27 -32 -32 -248 -95 -281 -83
-36 14 -89 -13 -96 -49 -9 -38 -224 -252 -254 -252 -26 0 -62 -45 -62 -77 0
-27 -619 -990 -648 -1008 -9 -5 -27 -20 -40 -33 -21 -20 -23 -29 -17 -71 10
-70 -104 -610 -136 -642 -18 -18 -20 -28 -15 -72 10 -72 -126 -711 -158 -745
-19 -20 -54 -28 -281 -63 -206 -33 -268 -39 -297 -31 -25 6 -51 6 -76 -1 -31
-8 -115 -1 -406 32 -340 40 -371 45 -407 69 -31 20 -68 73 -179 252 -77 125
-140 235 -140 245 0 26 108 145 131 145 11 0 31 11 44 24 32 32 104 56 154 49
33 -5 44 -1 65 20 14 14 26 35 26 46 0 29 128 165 172 184 46 19 65 57 48 98
-12 28 -59 55 -82 46 -7 -2 -26 7 -41 19 -32 27 -54 30 -92 12 -38 -17 -490 6
-522 27 -36 24 -79 19 -102 -11 -53 -68 13 -148 90 -110 26 13 60 13 267 2
234 -13 248 -16 311 -53 11 -7 -117 -129 -141 -136 -15 -4 -34 -17 -41 -28
-19 -27 -102 -51 -147 -44 -41 7 -90 -23 -90 -55 0 -29 -107 -147 -141 -154
-66 -13 -76 -101 -15 -137 42 -24 316 -463 316 -506 0 -56 41 -81 104 -64 34
10 101 5 412 -32 273 -33 378 -48 395 -61 31 -21 77 -21 102 2 25 22 552 106
578 91 32 -17 67 -10 89 18 17 22 20 36 15 73 -8 61 128 705 155 735 25 27 34
69 21 93 -16 31 104 597 136 635 13 16 23 41 23 57 0 41 623 997 665 1020 17
9 34 30 41 49 15 47 209 239 254 251 19 5 41 18 50 28 18 23 239 87 266 78 27
-9 244 -404 244 -444 0 -40 28 -72 65 -74 41 -2 482 -289 510 -332 29 -44 68
-55 103 -29 30 23 39 61 23 102 -16 38 14 486 34 518 24 36 19 79 -11 102 -67
53 -148 -13 -110 -89 12 -26 12 -58 0 -247 -8 -120 -15 -223 -16 -230 -4 -18
-437 269 -458 304 -9 16 -28 36 -41 45 -14 9 -70 99 -132 210 -85 155 -107
203 -107 235 0 32 48 130 259 533 143 272 264 496 270 498 20 7 159 -64 184
-94 22 -26 33 -66 70 -260 30 -152 42 -235 36 -246 -24 -45 15 -108 66 -108
32 0 75 41 75 72 0 12 -11 38 -24 57 -32 49 -114 468 -97 500 26 48 -15 101
-80 101 -49 0 -169 55 -197 91 -32 39 -82 40 -111 3z"/>
</g>
</svg>
