<?xml version="1.0" standalone="no"?>
<!DOCTYPE svg PUBLIC "-//W3C//DTD SVG 20010904//EN"
 "http://www.w3.org/TR/2001/REC-SVG-20010904/DTD/svg10.dtd">
<svg version="1.0" xmlns="http://www.w3.org/2000/svg"
 width="552.000000pt" height="234.000000pt" viewBox="0 0 552.000000 234.000000"
 preserveAspectRatio="xMidYMid meet">
<metadata>
Created by potrace 1.14, written by Peter Selinger 2001-2017
</metadata>
<g transform="translate(0.000000,234.000000) scale(0.100000,-0.100000)"
fill="#ffffff" stroke="none">
<path d="M686 2309 c-19 -15 -26 -30 -26 -55 0 -46 29 -74 78 -74 54 0 1335
-607 1372 -650 14 -16 38 -32 53 -36 41 -10 427 -375 449 -426 12 -26 27 -42
47 -49 33 -12 81 -74 81 -107 0 -30 34 -62 68 -62 37 -1 92 -52 131 -121 l31
-56 -38 -7 c-59 -9 -130 -7 -138 5 -4 7 -26 9 -58 6 -68 -7 -142 9 -189 40
-31 22 -42 24 -69 17 -49 -14 -1960 427 -2001 462 -36 31 -71 30 -102 -1 -32
-31 -32 -69 1 -102 22 -22 31 -24 69 -18 67 10 1956 -427 1999 -463 26 -21 36
-23 81 -17 61 7 142 -9 170 -34 30 -28 61 -31 98 -11 40 22 178 29 220 11 16
-6 41 -10 55 -9 38 3 610 -259 629 -288 23 -35 65 -48 99 -31 26 13 83 9 559
-39 445 -45 536 -57 567 -74 20 -11 45 -20 55 -20 11 0 23 -12 30 -30 28 -73
143 -53 143 26 0 34 -37 74 -69 74 -21 0 -31 7 -42 32 -18 42 -55 56 -106 39
-32 -10 -114 -4 -565 43 -400 41 -532 58 -550 70 -12 9 -39 16 -59 16 -54 0
-633 265 -648 296 -5 12 -19 25 -30 29 -27 8 -102 141 -106 187 -3 49 -19 67
-66 74 -22 4 -39 11 -39 16 0 5 -15 15 -34 23 -38 16 -76 62 -76 93 0 29 -37
70 -66 74 -30 4 -442 384 -443 409 -1 9 -10 28 -22 43 -16 20 -29 26 -59 26
-57 0 -1341 609 -1386 657 -36 38 -61 41 -98 12z"/>
</g>
</svg>
