<?xml version="1.0" standalone="no"?>
<!DOCTYPE svg PUBLIC "-//W3C//DTD SVG 20010904//EN"
 "http://www.w3.org/TR/2001/REC-SVG-20010904/DTD/svg10.dtd">
<svg version="1.0" xmlns="http://www.w3.org/2000/svg"
 width="553.000000pt" height="223.000000pt" viewBox="0 0 553.000000 223.000000"
 preserveAspectRatio="xMidYMid meet">
<metadata>
Created by potrace 1.14, written by Peter Selinger 2001-2017
</metadata>
<g transform="translate(0.000000,223.000000) scale(0.100000,-0.100000)"
fill="#ffffff" stroke="none">
<path d="M554 2208 c-22 -10 -44 -47 -44 -74 0 -8 11 -26 25 -39 18 -19 35
-25 67 -25 31 0 162 -47 513 -186 258 -103 472 -188 474 -190 2 -2 -112 -122
-253 -268 -163 -168 -266 -266 -283 -271 -38 -9 -536 196 -575 237 -33 35 -71
36 -103 3 -32 -31 -32 -69 1 -102 21 -20 32 -24 59 -20 34 6 50 0 487 -182 45
-19 79 -40 83 -50 3 -10 -6 -91 -20 -180 -18 -120 -30 -169 -45 -188 -26 -33
-25 -63 1 -97 16 -20 29 -26 58 -26 30 0 147 -53 517 -236 264 -129 481 -240
483 -246 10 -30 43 -49 79 -46 30 2 41 10 61 40 30 47 460 358 495 358 13 0
35 9 50 21 22 18 82 28 374 69 239 33 351 44 360 37 7 -5 30 -7 52 -4 31 4 91
-9 247 -53 116 -33 210 -65 215 -73 4 -8 21 -20 37 -27 25 -10 35 -9 59 3 27
13 63 11 353 -16 271 -25 328 -33 348 -48 27 -22 41 -23 74 -8 26 12 47 47 47
78 0 29 215 316 254 339 61 36 58 112 -5 135 -41 16 -309 329 -309 361 0 30
-40 66 -74 66 -19 0 -38 -11 -60 -34 -23 -25 -168 -101 -596 -309 -310 -152
-566 -274 -568 -273 -1 2 -27 115 -56 251 -43 202 -51 253 -43 276 8 20 8 35
0 52 -16 35 108 698 138 735 60 77 -37 167 -106 97 -27 -27 -30 -42 -14 -77 8
-19 -3 -96 -55 -367 -36 -188 -70 -349 -77 -357 -17 -21 -952 -20 -989 1 -14
8 -33 14 -43 15 -22 0 -497 396 -497 414 0 8 -8 24 -18 36 -14 17 -28 22 -63
22 -65 -1 -989 365 -1029 408 -29 31 -50 36 -86 18z m1381 -774 c169 -141 233
-201 242 -225 11 -28 3 -97 -62 -533 -42 -276 -76 -504 -78 -508 -4 -13 -965
469 -976 490 -16 31 34 349 60 378 10 11 19 29 19 40 1 29 533 569 551 559 8
-5 118 -95 244 -201z m1349 -266 c14 -24 121 -507 113 -514 -2 -3 -161 -26
-352 -53 -274 -38 -354 -46 -376 -37 -39 14 -81 -2 -98 -39 -9 -21 -76 -75
-220 -177 -113 -82 -207 -144 -209 -138 -6 17 139 955 150 967 8 10 118 13
494 13 l484 0 14 -22z m1575 -180 c75 -88 137 -170 139 -183 5 -35 -216 -334
-260 -352 -27 -12 -74 -9 -350 16 -240 23 -324 34 -343 47 -16 11 -37 15 -62
11 -27 -3 -87 9 -198 40 -88 25 -167 49 -175 54 -11 5 14 22 90 57 58 28 302
147 543 265 294 144 445 213 459 209 11 -3 82 -77 157 -164z"/>
</g>
</svg>
